/* XPM */
static char * DOOR_4_xpm[] = {
"64 64 7 1",
" 	c None",
".	c #2E2533",
"+	c #27232A",
"@	c #E5E6C7",
"#	c #E43C3C",
"$	c #E53D3D",
"%	c #E43D3D",
"          .......++++....++++....++++....++++....+++++          ",
"       ++.@@@@@@####@@@@####@@@@####@@@@####@@@@######+..       ",
"      +##@@@@@@####@@@@####@@@@####@@@@####@@@@########@@.      ",
"     +####@@@@@####@@@@####@@@@####@@@@####@@@@########@@@.     ",
"    +#####@@@@@####@@@@####@@@@####@@@@####@@@@###$#####@@@.    ",
"   +#######@@@@@####@@@@####@@@@####@@@@####@@@@##%#####@@@@+   ",
"  .@@#######@@@@####@@@@####@@@@####@@@@####@@@@########@@@@#+  ",
" .@@@@######@@@@@####@@@@####@@@@####@@@@####@@@@#######@@@@##+ ",
" .@@@@@@#####@@@@@####@@@@####@@@@####@@@@####@@@@#####@@@@###+ ",
" .@@@@@@@@#####@@@@####@@@@####@@@@####@@@@####@@@@@###@@@@###+ ",
"+##@@@@@@@@@#####@@@@####@@@@####@@@@####@@@@####@@@@#@@@@####@.",
"+#####@@@@@..........................................@@@@####@@.",
"+########@@.                                        .########@@+",
"+#######@@@.                                        .#######@@@+",
".######@@@#.                                        .######@@@#+",
".@###@@@@@#.                                        .@###@@@@@#+",
".@@@@@@@@##.                                        .@@@@@@@@##.",
".@@@@@@@###.                                        .@@@@@@@###.",
"+@@@@@@###@.                                        .@@@@@@###@.",
"+#@@@#####@.                                        .#@@@#####@.",
"+########@@.                                        .########@@+",
"+#######@@@.                                        .#######@@@+",
".######@@@#.                                        .######@@@#+",
".@###@@@@@#.                                        .@###@@@@@#+",
".@@@@@@@@##.                                        .@@@@@@@@##.",
".@@@@@@@###.                                        .@@@@@@@###.",
"+@@@@@@###@.                                        .@@@@@@###@.",
"+#@@@#####@.                                        .#@@@#####@.",
"+########@@.                                        .########@@+",
"+#######@@@.                                        .#######@@@+",
".######@@@#.                                        .######@@@#+",
".@###@@@@@#.                                        .@###@@@@@#+",
".@@@@@@@@##.                                        .@@@@@@@@##.",
".@@@@@@@###.                                        .@@@@@@@###.",
"+@@@@@@###@.                                        .@@@@@@###@.",
"+#@@@#####@.                                        .#@@@#####@.",
"+########@@.                                        .########@@+",
"+#######@@@.                                        .#######@@@+",
".######@@@#.                                        .######@@@#+",
".@###@@@@@#.                                        .@###@@@@@#+",
".@@@@@@@@##.                                        .@@@@@@@@##.",
".@@@@@@@###.                                        .@@@@@@@###.",
"+@@@@@@###@.                                        .@@@@@@###@.",
"+#@@@#####@.                                        .#@@@#####@.",
"+########@@.                                        .########@@+",
"+#######@@@.                                        .#######@@@+",
".######@@@#.                                        .######@@@#+",
".@###@@@@@#.                                        .@###@@@@@#+",
".@@@@@@@@##.                                        .@@@@@@@@##.",
".@@@@@@@###.                                        .@@@@@@@###.",
"+@@@@@@###@.                                        .@@@@@@###@.",
"+#@@@#####@.                                        .#@@@#####@.",
"+########@@.                                        .########@@+",
"+#######@@@.                                        .#######@@@+",
".######@@@#.                                        .######@@@#+",
".@###@@@@@#.                                        .@###@@@@@#+",
".@@@@@@@@##.                                        .@@@@@@@@##.",
".@@@@@@@###.                                        .@@@@@@@###.",
"+@@@@@@###@.                                        .@@@@@@###@.",
"+#@@@#####@.                                        .#@@@#####@.",
"+########@@.                                        .########@@+",
"+#######@@@.                                        .#######@@@+",
".######@@@#.                                        .######@@@#+",
".@###@@@@@#.                                        .@###@@@@@#+"};
