/* XPM */
static char * DOOR_xpm[] = {
"64 64 44 1",
" 	c None",
".	c #2E2533",
"+	c #27232A",
"@	c #E5E6C7",
"#	c #E43C3C",
"$	c #E4413F",
"%	c #E53D3D",
"&	c #E43D3D",
"*	c #E54140",
"=	c #E44340",
"-	c #AE424A",
";	c #C4B59F",
">	c #E24543",
",	c #E5BFA6",
"'	c #E24844",
")	c #E2504C",
"!	c #523745",
"~	c #E5DCBF",
"{	c #8A6578",
"]	c #C6B19C",
"^	c #726B7E",
"/	c #BD7C5E",
"(	c #B27055",
"_	c #AD6B52",
":	c #7C473E",
"<	c #945747",
"[	c #5D3738",
"}	c #8A4E41",
"|	c #BA7758",
"1	c #EA9033",
"2	c #FEAE34",
"3	c #F6757A",
"4	c #FF9B9E",
"5	c #A7634A",
"6	c #DA7732",
"7	c #DB4B53",
"8	c #492D33",
"9	c #DD8648",
"0	c #ECBF7B",
"a	c #E3A954",
"b	c #E19A4F",
"c	c #E6A14F",
"d	c #DF8F4B",
"e	c #DA8D4C",
"          .......++++....++++....++++....++++....+++++          ",
"       ++.@@@@@@####@@@@####@@@@####@@@@####@@@@######+..       ",
"      +##@@@@@@####@@@@####@@@@####@@@@####@@@@########@@.      ",
"     +####@@@@@####@@@@####@@@@####@@@@####@@@@###$####@@@.     ",
"    +#####@@@@@####@@@@####@@@@####@@@@####@@@@###%#####@@@.    ",
"   +#######@@@@@####@@@@####@@@@####@@@@####@@@@##&#####@@@@+   ",
"  .@@#######@@@@####@@@@####@@@@####@@@@####@@@@##*=####@@@@#+  ",
" .@@@@#####-;;@@@####@@@@####@@@@####@@@@####@@@@#>>-###@@@@##+ ",
" .@@@@@@##---;@@@@####@@@@####@@@@####@@@@####@@@,')--#@@@@###+ ",
" .@@@@@@@;---!#@@@@####@@@@####@@@@####@@@@####@@~{]---@@@@###+ ",
"+##@@@@@@;;^!!###@@@@####@@@@####@@@@####@@@@####@^^!-;@@@####@.",
"+#####@@@;;^.+.++++....++++....++++....++++....++++.!;;@@####@@.",
"+########@@+/(_____//(_____//(_____//(_____//(_____/+########@@+",
"+#######@@@+:/____/<:/____/<:/____/<:/____/<:/____/<+#######@@@+",
".######@@@#+[:////<}[:////<}[:////<}[:////<}[:////<}.######@@@#+",
".@###@@@@@#+[[|12/}}[[|34/}}[[|12/}}[[|34/}}[[|12/}}.@###@@@@@#+",
".@@@@@@@@##.[[561|}}[[573|}}[[561|}}[[573|}}[[561|}}.@@@@@@@@##.",
".@@@@@@@###.[[5555}}[[5555}}[[5555}}[[5555}}[[5555}}.@@@@@@@###.",
"+@@@@@@###@.[88888[}[88888[}[88888[}[88888[}[88888[}+@@@@@@###@.",
"+#@@@#####@.8888888[8888888[8888888[8888888[8888888[+#@@@#####@.",
"+########@@+/(_____//(_____//(_____//(_____//(_____/+########@@+",
"+#######@@@+:/____/<:/____/<:/____/<:/____/<:/____/<+#######@@@+",
".######@@@#+[:////<}[:////<}[:////<}[:////<}[:////<}.######@@@#+",
".@###@@@@@#+[[|12/}}[[|34/}}[[|12/}}[[|34/}}[[|12/}}.@###@@@@@#+",
".@@@@@@@@##.[[561|}}[[573|}}[[561|}}[[573|}}[[561|}}.@@@@@@@@##.",
".@@@@@@@###.[[5555}}[[5555}}[[5555}}[[5555}}[[5555}}.@@@@@@@###.",
"+@@@@@@###@.[88888[}[88888[}[88888[}[88888[}[88888[}+@@@@@@###@.",
"+#@@@#####@.8888888[8888888[8888888[8888888[8888888[+#@@@#####@.",
"+########@@+/(_____//(_____//(_____//(_____//(_____/+########@@+",
"+#######@@@+:/____/<:/____/<:/____/<:/____/<:/____/<+#######@@@+",
".######@@@#+[:////<}[:////<}[:////<}[:////<}[:////<}.######@@@#+",
".@###@@@@@#+[[|34/}}[[|12/}}[[|34/}}[[|12/}}[[|34/}}.@###@@@@@#+",
".@@@@@@@@##.[[573|}}[[561|}}[[573|}}[[561|}}[[573|}}.@@@@@@@@##.",
".@@@@@@@###.[[5555}}[[5555}}[[5555}}[[5555}}[[5555}}.@@@@@@@###.",
"+@@@@@@###@.[88888[}[88888[}[88888[}[88888[}[88888[}+@@@@@@###@.",
"+#@@@#####@.8888888[8888888[8888888[8888888[8888888[+#@@@#####@.",
"+########@@+/(_____//(_____//(_____//(_____//(_____/+########@@+",
"+#######@@@+:/____/<:/____/<:/____/<:/____/<:/____/<+#######@@@+",
".######@@@#+[:////<}[:////<}[:////<}[:////<}[:////<}.######@@@#+",
".@###@@@@@#+[[|34/}}[[|12/}}[[|34/}}[[|12/}}[[|34/}}.@###@@@@@#+",
".@@@@@@@@##.[[573|}}[[561|}}[[573|}}[[561|}}[[573|}}.@@@@@@@@##.",
".@@@@@@@###.[[5555}}[[5555}}[[5555}}[[5555}}[[5555}}.@@@@@@@###.",
"+@@@@@@###@.[88888[}[88888[}[88888[}[88888[}[88888[}+@@@@@@###@.",
"+#@@@#####@.8888888[8888888[8888888[8888888[8888888[+#@@@#####@.",
"+########@@+/(_____//(_____//(_____//(_____//(_____/+########@@+",
"+#######@@@+:/____/<:/____/<:/____/<:/____/<:/____/<+#######@@@+",
".######@@@#+[:////<}[:////<}[:////<}[:////<}[:////<}.######@@@#+",
".@###@@@@@#+[[|12/}}[[|34/}}[[|12/}}[[|34/}}[[|12/}}.@###@@@@@#+",
".@@@@@@@@##.[[561|}}[[573|}}[[561|}}[[573|}}[[561|}}.@@@@@@@@##.",
".@@@@@@@###.[[5555}}[[5555}}[[5555}}[[5555}}[[5555}}.@@@@@@@###.",
"+@@@@@@###@.[88888[}[88888[}[88888[}[88888[}[88888[}+@@@@@@###@.",
"+#@@@#####@.8888888[8888888[8888888[8888888[8888888[+#@@@#####@.",
"+########@@+/(_____//(_____//(_____//(_____//(_____/+########@@+",
"+#######@@@+:/____/<:/____/<:/____/<:/____/<:/____/<+#######@@@+",
".######@@@#+[:////<}[:////<}[:////<}[:////<}[:////<}.######@@@#+",
".@###@@@@@#+[[|12/}}[[|34/}}[[|12/}}[[|34/}}[[|12/}}.@###@@@@@#+",
".@@@@@@@@##.[[561|}}[[573|}}[[561|}}[[573|}}[[561|}}.@@@@@@@@##.",
".@@@@@@@###.[[5555}}[[5555}}[[5555}}[[5555}}[[5555}}.@@@@@@@###.",
"+@@@@@@###@.[88888[}[88888[}[88888[}[88888[}[88888[}+@@@@@@###@.",
"+#@@@#####@.8888888[8888888[8888888[8888888[8888888[+#@@@#####@.",
"+########@@+90abcba090abcba090abcba090abcba090abcba0+########@@+",
"+#######@@@+d90aba09d90aba09d90aba09d90aba09d90aba09+#######@@@+",
".######@@@#+cd90a09bcd90a09bcd90a09bcd90a09bcd90a09b.######@@@#+",
".@###@@@@@#+ccde0abcccde0abcccde0abcccde0abcccde0abc.@###@@@@@#+"};
