/* XPM */
static char * DOOR_xpm[] = {
"64 64 9 1",
" 	c #3E2731",
".	c #5B4548",
"+	c #614E4E",
"@	c #E9E5E1",
"#	c #DED5CB",
"$	c #D4C6B7",
"%	c #E4DED7",
"&	c #553D42",
"*	c #49313A",
"       .+       @@@###$$#%@#%@@@@@@###$$#%@#%@@@       .+       ",
"&&+ + &&&+ +*&.+##$$%%%%$%@#%%#@##$$%%%%$%@#%%#@&&+ + &&&+ +*&.+",
"    & &&&& &*   #$$%@@@@%#%@##%##$$%@@@@%#%@##%#    & &&&& &*   ",
"&&+ &* &&  & &&+#$%@@##@@%$%@%#$#$%@@##@@%$%@%#$&&+ &* &&  & &&+",
"   *& &  + &    @#@@#$$#@%#$$#@@@#@@#$$#@%#$$#@@   *& &  + &    ",
"&&+*  &..+   &&+@#@@#$#@%##$#@%#@#@@#$#@%##$#@%#&&+*  &..+   &&+",
"    & &&&& &    #$%@##$$##$#@%#$#$%@##$$##$#@%#$    & &&&& &    ",
"&.+   &  &   &&+@@#%%###%$##@%#$@@#%%###%$##@%#$&.+   &  &   &&+",
"    +  .+ *+    @@@#@@%$#$#%#@%#@@@#@@%$#$#%#@%#    +  .+ *+    ",
"&.+ & &&&+*& &.+##%@#$$#%##@%##%##%@#$$#%##@%##%&.+ & &&&+*& &.+",
"    & &&&. &    $$#%@#$%@%##@@@#$$#%@#$%@%##@@@#    & &&&. &    ",
"&&+ &* &&  & &.+$$#%@%#%@$$####$$$#%@%#%@$$####$&&+ &* &&  & &.+",
"     *&  +      #$#%@%#%@#$$#@#$#$#%@%#%@#$$#@#$     *&  +      ",
"&&+ + &..& + &&+##%@%##%%@##@#$###%@%##%%@##@#$#&&+ + &..& + &&+",
"    & &&&& &    %%%%$%$#%%@@#$#%%%%%$%$#%%@@#$#%    & &&&& &    ",
"&&+ & &  & & &&+###$%@%$$###$#%@###$%@%$$###$#%@&&+ & &  & & &&+",
"       .+       @@@###$$#%@#%@@@@@@###$$#%@#%@@@       .+       ",
"&&+ + &&&+ +*&.+##$$%%%%$%@#%%#@##$$%%%%$%@#%%#@&&+ + &&&+ +*&.+",
"    & &&&& &*   #$$%@@@@%#%@##%##$$%@@@@%#%@##%#    & &&&& &*   ",
"&&+ &* &&  & &&+#$%@@##@@%$%@%#$#$%@@##@@%$%@%#$&&+ &* &&  & &&+",
"   *& &  + &    @#@@#$$#@%#$$#@@@#@@#$$#@%#$$#@@   *& &  + &    ",
"&&+*  &..+   &&+@#@@#$#@%##$#@%#@#@@#$#@%##$#@%#&&+*  &..+   &&+",
"    & &&&& &    #$%@##$$##$#@%#$#$%@##$$##$#@%#$    & &&&& &    ",
"&.+   &  &   &&+@@#%%###%$##@%#$@@#%%###%$##@%#$&.+   &  &   &&+",
"    +  .+ *+    @@@#@@%$#$#%#@%#@@@#@@%$#$#%#@%#    +  .+ *+    ",
"&.+ & &&&+*& &.+##%@#$$#%##@%##%##%@#$$#%##@%##%&.+ & &&&+*& &.+",
"    & &&&. &    $$#%@#$%@%##@@@#$$#%@#$%@%##@@@#    & &&&. &    ",
"&&+ &* &&  & &.+$$#%@%#%@$$####$$$#%@%#%@$$####$&&+ &* &&  & &.+",
"     *&  +      #$#%@%#%@#$$#@#$#$#%@%#%@#$$#@#$     *&  +      ",
"&&+ + &..& + &&+##%@%##%%@##@#$###%@%##%%@##@#$#&&+ + &..& + &&+",
"    & &&&& &    %%%%$%$#%%@@#$#%%%%%$%$#%%@@#$#%    & &&&& &    ",
"&&+ & &  & & &&+###$%@%$$###$#%@###$%@%$$###$#%@&&+ & &  & & &&+",
"       .+       @@@###$$#%@#%@@@@@@###$$#%@#%@@@       .+       ",
"&&+ + &&&+ +*&.+##$$%%%%$%@#%%#@##$$%%%%$%@#%%#@&&+ + &&&+ +*&.+",
"    & &&&& &*   #$$%@@@@%#%@##%##$$%@@@@%#%@##%#    & &&&& &*   ",
"&&+ &* &&  & &&+#$%@@##@@%$%@%#$#$%@@##@@%$%@%#$&&+ &* &&  & &&+",
"   *& &  + &    @#@@#$$#@%#$$#@@@#@@#$$#@%#$$#@@   *& &  + &    ",
"&&+*  &..+   &&+@#@@#$#@%##$#@%#@#@@#$#@%##$#@%#&&+*  &..+   &&+",
"    & &&&& &    #$%@##$$##$#@%#$#$%@##$$##$#@%#$    & &&&& &    ",
"&.+   &  &   &&+@@#%%###%$##@%#$@@#%%###%$##@%#$&.+   &  &   &&+",
"    +  .+ *+    @@@#@@%$#$#%#@%#@@@#@@%$#$#%#@%#    +  .+ *+    ",
"&.+ & &&&+*& &.+##%@#$$#%##@%##%##%@#$$#%##@%##%&.+ & &&&+*& &.+",
"    & &&&. &    $$#%@#$%@%##@@@#$$#%@#$%@%##@@@#    & &&&. &    ",
"&&+ &* &&  & &.+$$#%@%#%@$$####$$$#%@%#%@$$####$&&+ &* &&  & &.+",
"     *&  +      #$#%@%#%@#$$#@#$#$#%@%#%@#$$#@#$     *&  +      ",
"&&+ + &..& + &&+##%@%##%%@##@#$###%@%##%%@##@#$#&&+ + &..& + &&+",
"    & &&&& &    %%%%$%$#%%@@#$#%%%%%$%$#%%@@#$#%    & &&&& &    ",
"&&+ & &  & & &&+###$%@%$$###$#%@###$%@%$$###$#%@&&+ & &  & & &&+",
"       .+       @@@###$$#%@#%@@@@@@###$$#%@#%@@@       .+       ",
"&&+ + &&&+ +*&.+##$$%%%%$%@#%%#@##$$%%%%$%@#%%#@&&+ + &&&+ +*&.+",
"    & &&&& &*   #$$%@@@@%#%@##%##$$%@@@@%#%@##%#    & &&&& &*   ",
"&&+ &* &&  & &&+#$%@@##@@%$%@%#$#$%@@##@@%$%@%#$&&+ &* &&  & &&+",
"   *& &  + &    @#@@#$$#@%#$$#@@@#@@#$$#@%#$$#@@   *& &  + &    ",
"&&+*  &..+   &&+@#@@#$#@%##$#@%#@#@@#$#@%##$#@%#&&+*  &..+   &&+",
"    & &&&& &    #$%@##$$##$#@%#$#$%@##$$##$#@%#$    & &&&& &    ",
"&.+   &  &   &&+@@#%%###%$##@%#$@@#%%###%$##@%#$&.+   &  &   &&+",
"    +  .+ *+    @@@#@@%$#$#%#@%#@@@#@@%$#$#%#@%#    +  .+ *+    ",
"&.+ & &&&+*& &.+##%@#$$#%##@%##%##%@#$$#%##@%##%&.+ & &&&+*& &.+",
"    & &&&. &    $$#%@#$%@%##@@@#$$#%@#$%@%##@@@#    & &&&. &    ",
"&&+ &* &&  & &.+$$#%@%#%@$$####$$$#%@%#%@$$####$&&+ &* &&  & &.+",
"     *&  +      #$#%@%#%@#$$#@#$#$#%@%#%@#$$#@#$     *&  +      ",
"&&+ + &..& + &&+##%@%##%%@##@#$###%@%##%%@##@#$#&&+ + &..& + &&+",
"    & &&&& &    %%%%$%$#%%@@#$#%%%%%$%$#%%@@#$#%    & &&&& &    ",
"&&+ & &  & & &&+###$%@%$$###$#%@###$%@%$$###$#%@&&+ & &  & & &&+"};
